<?xml version="1.0" standalone="no"?>
<!DOCTYPE svg PUBLIC "-//W3C//DTD SVG 20010904//EN"
 "http://www.w3.org/TR/2001/REC-SVG-20010904/DTD/svg10.dtd">
<svg version="1.0" xmlns="http://www.w3.org/2000/svg"
 width="64.000000pt" height="64.000000pt" viewBox="0 0 64.000000 64.000000"
 preserveAspectRatio="xMidYMid meet">
<metadata>
Created by potrace 1.15, written by Peter Selinger 2001-2017
</metadata>
<g transform="translate(0.000000,64.000000) scale(0.100000,-0.100000)"
fill="#000000" stroke="none">
<path d="M110 592 c0 -13 -7 -37 -17 -55 -22 -44 -21 -107 4 -148 19 -31 20
-39 9 -92 -8 -40 -20 -65 -39 -83 -15 -13 -27 -34 -27 -45 0 -11 -4 -29 -10
-39 -13 -24 -3 -50 20 -50 14 0 17 8 16 38 -1 33 3 39 34 54 34 17 35 17 42
-3 17 -44 49 -79 74 -79 13 0 24 5 24 10 0 6 -6 10 -14 10 -8 0 -22 10 -30 22
-15 21 -14 24 21 56 32 28 45 34 95 36 l58 3 0 -51 c0 -70 9 -96 31 -96 20 0
26 15 10 24 -10 7 5 96 18 109 18 18 38 -2 61 -60 28 -71 37 -83 61 -83 24 0
24 5 1 28 -31 31 -35 103 -9 180 17 52 28 70 50 80 43 21 30 66 -25 85 -10 4
-18 14 -18 23 0 13 -3 14 -14 5 -8 -6 -20 -10 -27 -9 -7 2 -15 -11 -20 -32
-10 -48 -29 -58 -86 -49 -27 4 -93 8 -148 9 -107 0 -116 3 -134 37 -15 30 -14
60 6 111 15 40 15 44 0 60 -16 15 -17 15 -17 -6z"/>
</g>
</svg>
